<svg xmlns="http://www.w3.org/2000/svg" xmlns:xlink="http://www.w3.org/1999/xlink" version="1.1" x="0px" y="0px" viewBox="0 0 20 20" style="enable-background:new 0 0 20 20;" xml:space="preserve"><path d="M16.5,6H16v-5c0-0.4-0.2-0.7-0.5-0.9c-0.3-0.2-0.7-0.2-1,0L6.7,5H2.1c-1.1,0-2,0.9-2,2v6c0,1.1,0.9,2,2,2v5h2v-5h2.7  l7.8,4.8c0.3,0.2,0.7,0.2,1,0c0.3-0.2,0.5-0.5,0.5-0.9v-6h0.4c1.9,0,3.5-1.6,3.5-3.5S18.4,6,16.5,6z M2.1,11h4v2h-4V11z M6,7v2h-4V7  H6z M14,17.2l-6-3.7V6.6l6-3.7V17.2z M16.5,11H16V8h0.4c0.8,0,1.5,0.7,1.5,1.5C17.9,10.3,17.3,11,16.5,11z"></path></svg>