<svg xmlns="http://www.w3.org/2000/svg" width="252" height="142" viewBox="0 0 252 142">
    <g fill="none" fill-rule="evenodd" stroke-linecap="round" opacity=".75">
        <path stroke="#FE3B1F" stroke-dasharray="9.142300000000001,3.0474,0.7619,3.0474,0.7619,3.0474" stroke-width="1.524" d="M-223.825-155.238l337.54 464.81"/>
        <path stroke="#2D3E95" stroke-dasharray="8.5303,2.8434,0.7109,2.8434,0.7109,2.8434" stroke-width="1.422" d="M-187.556-134.985L77.446 289.208"/>
        <path stroke="#FE3B1F" stroke-dasharray="9.142300000000001,3.0474,0.7619,3.0474,0.7619,3.0474" stroke-width="1.524" d="M-153.29-192.85L43.18 347.072"/>
        <path stroke="#2D3E95" stroke-dasharray="9.4636,3.1545,0.7886,3.1545,0.7886,3.1545" stroke-width="1.577" d="M-139.94-218.777L29.72 373"/>
        <path stroke="#FE3B1F" stroke-dasharray="9.142300000000001,3.0474,0.7619,3.0474,0.7619,3.0474" stroke-width="1.524" d="M-114.797-203.866L4.687 358.089"/>
        <path stroke="#FE3B1F" stroke-dasharray="8.1957,2.7319,0.6830000000000001,2.7319,0.6830000000000001,2.7319" stroke-width="1.366" d="M-163.415-126.75l216.72 407.723"/>
        <path stroke="#2D3E95" stroke-dasharray="8.8523,2.9508,0.7377,2.9508,0.7377,2.9508" stroke-width="1.475" d="M-164.638-168.925L54.417 323.147"/>
        <path stroke="#2D3E95" stroke-dasharray="9.142300000000001,3.0474,0.7619,3.0474,0.7619,3.0474" stroke-width="1.524" d="M-239.623-142.886L129.513 297.22"/>
        <path stroke="#FE3B1F" stroke-dasharray="9.142300000000001,3.0474,0.7619,3.0474,0.7619,3.0474" stroke-width="1.524" d="M-333.742 7.674L223.632 146.66"/>
        <path stroke="#2D3E95" stroke-dasharray="8.5303,2.8434,0.7109,2.8434,0.7109,2.8434" stroke-width="1.422" d="M-292.912-.116L182.69 154.45"/>
        <path stroke="#FE3B1F" stroke-dasharray="9.142300000000001,3.0474,0.7619,3.0474,0.7619,3.0474" stroke-width="1.524" d="M-303.815-66.549l497.52 287.32"/>
        <path stroke="#2D3E95" stroke-dasharray="9.4636,3.1545,0.7886,3.1545,0.7886,3.1545" stroke-width="1.577" d="M-310.156-95.036l510.202 344.295"/>
        <path stroke="#FE3B1F" stroke-dasharray="9.142300000000001,3.0474,0.7619,3.0474,0.7619,3.0474" stroke-width="1.524" d="M-281.342-99.71l452.574 353.642"/>
        <path stroke="#FE3B1F" stroke-dasharray="8.1957,2.7319,0.6830000000000001,2.7319,0.6830000000000001,2.7319" stroke-width="1.366" d="M-215.37-88.916l320.63 332.054M-269.104-9.352l427.987 172.926"/>
        <path stroke="#2D3E95" stroke-dasharray="8.8523,2.9508,0.7377,2.9508,0.7377,2.9508" stroke-width="1.475" d="M-255.198-103.048l400.286 360.43M-297.029-40.955L186.92 195.177"/>
        <path stroke="#2D3E95" stroke-dasharray="9.142300000000001,3.0474,0.7619,3.0474,0.7619,3.0474" stroke-width="1.524" d="M-337.858 27.259l565.606 99.705"/>
        <path stroke="#FE3B1F" stroke-dasharray="9.142300000000001,3.0474,0.7619,3.0474,0.7619,3.0474" stroke-width="1.524" d="M-313.16 203.078L203.05-48.856"/>
        <path stroke="#2D3E95" stroke-dasharray="8.5303,2.8434,0.7109,2.8434,0.7109,2.8434" stroke-width="1.422" d="M-286.905 170.808l463.7-187.393"/>
        <path stroke="#FE3B1F" stroke-dasharray="9.142300000000001,3.0474,0.7619,3.0474,0.7619,3.0474" stroke-width="1.524" d="M-337.858 126.964l565.606-99.705"/>
        <path stroke="#2D3E95" stroke-dasharray="9.4636,3.1545,0.7886,3.1545,0.7886,3.1545" stroke-width="1.577" d="M-361.11 109.27L251 44.953"/>
        <path stroke="#FE3B1F" stroke-dasharray="9.142300000000001,3.0474,0.7619,3.0474,0.7619,3.0474" stroke-width="1.524" d="M-342.086 87.126l574.062-20.03"/>
        <path stroke="#FE3B1F" stroke-dasharray="8.1957,2.7319,0.6830000000000001,2.7319,0.6830000000000001,2.7319" stroke-width="1.366" d="M-284.568 52.964l459.026 48.295M-274.556 148.44L164.446 5.783"/>
        <path stroke="#2D3E95" stroke-dasharray="8.8523,2.9508,0.7377,2.9508,0.7377,2.9508" stroke-width="1.475" d="M-324.174 67.764L214.064 86.57M-316.387 142.32L206.165 12.014"/>
        <path stroke="#FE3B1F" stroke-dasharray="9.142300000000001,3.0474,0.7619,3.0474,0.7619,3.0474" stroke-width="1.524" d="M-207.248 320.7L97.138-166.478"/>
        <path stroke="#2D3E95" stroke-dasharray="9.142300000000001,3.0474,0.7619,3.0474,0.7619,3.0474" stroke-width="1.524" d="M-189.893 330.714L79.783-176.492"/>
        <path stroke="#2D3E95" stroke-dasharray="8.5303,2.8434,0.7109,2.8434,0.7109,2.8434" stroke-width="1.422" d="M-202.02 279.415L91.91-125.192"/>
        <path stroke="#FE3B1F" stroke-dasharray="9.142300000000001,3.0474,0.7619,3.0474,0.7619,3.0474" stroke-width="1.524" d="M-268.437 269.289l426.764-384.355"/>
        <path stroke="#2D3E95" stroke-dasharray="9.4636,3.1545,0.7886,3.1545,0.7886,3.1545" stroke-width="1.577" d="M-297.585 266.618l485.06-379.013"/>
        <path stroke="#FE3B1F" stroke-dasharray="9.142300000000001,3.0474,0.7619,3.0474,0.7619,3.0474" stroke-width="1.524" d="M-293.135 237.797l476.16-321.26"/>
        <path stroke="#FE3B1F" stroke-dasharray="8.1957,2.7319,0.6830000000000001,2.7319,0.6830000000000001,2.7319" stroke-width="1.366" d="M-203.466 253.932L93.244-99.71"/>
        <path stroke="#2D3E95" stroke-dasharray="8.8523,2.9508,0.7377,2.9508,0.7377,2.9508" stroke-width="1.475" d="M-288.24 211.758L178.13-57.535M-242.07 270.847l374.03-387.471"/>
        <path stroke="#FE3B1F" stroke-dasharray="9.142300000000001,3.0474,0.7619,3.0474,0.7619,3.0474" stroke-width="1.524" d="M-134.267 353.304L24.045-198.97"/>
        <path stroke="#2D3E95" stroke-dasharray="9.4636,3.1545,0.7886,3.1545,0.7886,3.1545" stroke-width="1.577" d="M-160.3 366.323L50.19-212.1"/>
        <path stroke="#FE3B1F" stroke-dasharray="9.142300000000001,3.0474,0.7619,3.0474,0.7619,3.0474" stroke-width="1.524" d="M-171.87 339.505L61.76-185.283"/>
        <path stroke="#2D3E95" stroke-dasharray="8.8523,2.9508,0.7377,2.9508,0.7377,2.9508" stroke-width="1.475" d="M-111.015 340.618L.905-186.284"/>
    </g>
</svg>
