<svg xmlns="http://www.w3.org/2000/svg" viewBox="0 0 64 64" x="0px" y="0px"><g><path d="M3,24H4.38L2.11,28.55a.99243.99243,0,0,0,.23,1.2A.97269.97269,0,0,0,3,30a.99039.99039,0,0,0,.55-.17L12.3,24H25a5.00181,5.00181,0,0,0,5-5V9a5.00181,5.00181,0,0,0-5-5H7A5.00181,5.00181,0,0,0,2,9V23A1.003,1.003,0,0,0,3,24ZM23,13h2v2H23Zm-4,0h2v2H19Zm-4,0h2v2H15Zm-4,0h2v2H11ZM7,13H9v2H7Z"></path><path d="M25,54a5.00181,5.00181,0,0,0,5-5V39a5.00181,5.00181,0,0,0-5-5H7a5.00181,5.00181,0,0,0-5,5V53a1.003,1.003,0,0,0,1,1H4.38L2.11,58.55a.99243.99243,0,0,0,.23,1.2A.97269.97269,0,0,0,3,60a.99039.99039,0,0,0,.55-.17L12.3,54ZM23,43h2v2H23Zm-4,0h2v2H19Zm-4,0h2v2H15ZM9,45H7V43H9Zm2-2h2v2H11Z"></path><path d="M57,20H39a5.00181,5.00181,0,0,0-5,5V35a5.00181,5.00181,0,0,0,5,5H51.7l8.75,5.83A.99039.99039,0,0,0,61,46a.97269.97269,0,0,0,.66-.25.99243.99243,0,0,0,.23-1.2L59.62,40H61a1.003,1.003,0,0,0,1-1V25A5.00181,5.00181,0,0,0,57,20ZM41,31H39V29h2Zm4,0H43V29h2Zm4,0H47V29h2Zm4,0H51V29h2Zm4,0H55V29h2Z"></path></g></svg>