<?xml version="1.0" encoding="iso-8859-1"?>
<!-- Generator: Adobe Illustrator 19.0.0, SVG Export Plug-In . SVG Version: 6.00 Build 0)  -->
<svg version="1.1" id="Capa_1" xmlns="http://www.w3.org/2000/svg" xmlns:xlink="http://www.w3.org/1999/xlink" x="0px" y="0px"
	 viewBox="0 0 512 512" style="enable-background:new 0 0 512 512;" xml:space="preserve">
<g>
	<g>
		<path d="M80,0v121.813c-26.381,5.138-53.229,7.281-80,6.409c24.749,20.967,51.692,37.993,80,51.114V240h432V0H80z M482,210H110V30
			h372V210z"/>
	</g>
</g>
<g>
	<g>
		<path d="M432,393.813V272H0v240h432v-60.665c28.308-13.121,55.251-30.147,80-51.114C485.229,401.093,458.381,398.95,432,393.813z
			 M402,482H30V302h372V482z"/>
	</g>
</g>
<g>
	<g>
		<circle cx="296" cy="120" r="20"/>
	</g>
</g>
<g>
	<g>
		<circle cx="226" cy="120" r="20"/>
	</g>
</g>
<g>
	<g>
		<circle cx="366" cy="120" r="20"/>
	</g>
</g>
<g>
	<g>
		<circle cx="216" cy="392" r="20"/>
	</g>
</g>
<g>
	<g>
		<circle cx="146" cy="392" r="20"/>
	</g>
</g>
<g>
	<g>
		<circle cx="286" cy="392" r="20"/>
	</g>
</g>
<g>
</g>
<g>
</g>
<g>
</g>
<g>
</g>
<g>
</g>
<g>
</g>
<g>
</g>
<g>
</g>
<g>
</g>
<g>
</g>
<g>
</g>
<g>
</g>
<g>
</g>
<g>
</g>
<g>
</g>
</svg>
