<svg xmlns="http://www.w3.org/2000/svg" width="204" height="42" viewBox="0 0 204 42">
    <defs>
        <linearGradient id="a" x1="50.169%" x2="49.954%" y1="-48.194%" y2="79.087%">
            <stop offset="13.03%" stop-color="#0033A1"/>
            <stop offset="100%" stop-color="#FE3B1F"/>
        </linearGradient>
    </defs>
    <g fill="none" fill-rule="nonzero">
        <path fill="url(#a)" d="M0 1.988C0 1.046.78.262 1.715.262H7.43c2.079 0 3.69.575 4.729 1.673.883.89 1.403 2.197 1.403 3.767v.052c0 1.988-.78 3.4-2.027 4.341-.727.523-.883 1.57-.363 2.354l2.442 3.61c.208.313 0 .68-.364.68h-2.442c-.572 0-1.091-.314-1.455-.785L6.911 12.24a1.795 1.795 0 0 0-1.455-.785H5.3c-.935 0-1.715.785-1.715 1.727v1.778c0 .942-.78 1.726-1.714 1.726H.727A.713.713 0 0 1 0 15.954V1.988zm7.223 6.224c1.766 0 2.754-.941 2.754-2.301v-.053c0-1.569-1.092-2.353-2.806-2.353H5.352c-.935 0-1.715.784-1.715 1.726v1.255c0 .942.78 1.726 1.715 1.726h1.87zM23.954.262h11.12c.312 0 .623.261.623.627v1.988c0 .314-.26.628-.623.628h-7.535a.634.634 0 0 0-.623.627v2.093c0 .313.26.627.623.627h6.496c.311 0 .623.262.623.628v1.988c0 .314-.26.627-.623.627h-6.496a.634.634 0 0 0-.623.628v1.517a1.29 1.29 0 0 0 1.299 1.308h6.963c.312 0 .623.261.623.627v1.988c0 .314-.26.628-.623.628H23.954a.634.634 0 0 1-.623-.628V.993c.052-.47.311-.731.623-.731zM45.466 12.92a1.66 1.66 0 0 1 2.182-.314c1.144.732 2.339 1.15 3.69 1.15 1.455 0 2.338-.574 2.338-1.568v-.053c0-.889-.572-1.36-3.274-2.092-3.273-.837-5.404-1.778-5.404-5.021v-.053c0-2.981 2.39-4.969 5.716-4.969 1.663 0 3.17.366 4.469 1.046.883.47 1.143 1.622.571 2.406-.467.68-1.402.89-2.182.523-.987-.523-1.974-.837-2.962-.837-1.35 0-2.078.628-2.078 1.413v.052c0 1.099.675 1.412 3.533 2.145 3.326.889 5.144 2.04 5.144 4.917v.052c0 3.243-2.442 5.074-5.975 5.074-1.87 0-3.741-.471-5.352-1.465-.832-.418-1.04-1.621-.416-2.406zm20.68-4.394C66.147 3.818 69.785 0 74.825 0c5.04 0 8.626 3.766 8.626 8.422v.052c0 4.655-3.637 8.474-8.678 8.474-5.04 0-8.625-3.766-8.625-8.422zm13.615 0c0-2.877-2.027-5.178-4.937-5.178S69.94 5.649 69.94 8.474v.052c0 2.825 2.026 5.179 4.936 5.179 2.858-.105 4.885-2.354 4.885-5.179zM94.985.262h.676c.571 0 1.09.261 1.403.68l4.78 6.329c.728.994 2.338.47 2.338-.785V2.04c0-.994.78-1.778 1.767-1.778h.987c.416 0 .78.366.78.784v13.862c0 .994-.78 1.778-1.767 1.778h-.416a1.745 1.745 0 0 1-1.403-.68l-5.04-6.643c-.727-.994-2.338-.47-2.338.785v4.76c0 .994-.78 1.778-1.767 1.778h-.987a.802.802 0 0 1-.78-.784V2.04c0-.994.78-1.778 1.767-1.778zm29.306-.105h2.079a.96.96 0 0 1 .883.575l6.184 14.646a.948.948 0 0 1-.884 1.308h-1.714a.96.96 0 0 1-.884-.575l-1.04-2.511c-.155-.366-.467-.575-.882-.575h-5.612a.96.96 0 0 0-.884.575l-1.039 2.51c-.156.367-.467.576-.883.576h-1.61a.948.948 0 0 1-.884-1.308L123.304.732c.26-.366.624-.575.987-.575zm2.65 8.37l-.779-1.884a.919.919 0 0 0-1.715 0l-.78 1.883a.948.948 0 0 0 .884 1.308h1.559c.624-.052 1.091-.732.831-1.308zM144.764.261h.676c.571 0 1.09.261 1.403.68l4.78 6.329c.727.994 2.338.47 2.338-.785V2.04c0-.994.78-1.778 1.767-1.778h.935c.468 0 .832.366.832.836v13.81c0 .994-.78 1.778-1.767 1.778h-.416a1.745 1.745 0 0 1-1.403-.68l-5.04-6.643c-.727-.994-2.338-.47-2.338.785v4.76c0 .994-.78 1.778-1.767 1.778h-.935a.823.823 0 0 1-.832-.837V2.04c0-.994.78-1.778 1.767-1.778zm22.447 8.264c0-4.708 3.482-8.526 8.47-8.526 2.234 0 3.793.523 5.092 1.412.78.523.884 1.622.26 2.354l-.727.837c-.26.314-.78.366-1.092.105-1.09-.837-2.182-1.36-3.585-1.36-2.754 0-4.728 2.301-4.728 5.126v.052c0 3.4 2.754 5.754 6.027 5.022 1.04-.262 1.819-.785 2.65-1.517.156-.157.416-.157.624 0l.831.889c.676.68.572 1.778-.156 2.354-1.403 1.098-3.014 1.726-5.404 1.726-4.728-.052-8.262-3.766-8.262-8.474zM192.57.262h10.392c.52 0 .935.418.935.941v1.308a.935.935 0 0 1-.935.941h-6.807a.935.935 0 0 0-.935.942v1.412c0 .523.415.942.935.942h5.716c.52 0 .935.418.935.941v1.308a.935.935 0 0 1-.935.941h-5.768a.935.935 0 0 0-.935.942v.575c0 1.047.831 1.936 1.922 1.936h5.976c.52 0 .935.418.935.941v1.308a.935.935 0 0 1-.935.942h-10.496a.935.935 0 0 1-.936-.942V1.15c-.052-.47.416-.888.936-.888z"/>
        <g fill="#FE3B1F">
            <path d="M26.743 31.98c.988 0 2.6.378 2.6 1.57v.542c0 .162-.157.325-.313.325h-.52c-.155 0-.311-.163-.311-.325v-.163c0-.542-.832-.812-1.456-.812-1.352 0-2.235.975-2.235 2.437 0 1.571 1.04 2.492 2.339 2.492.832 0 1.508-.38 1.872-.65.156-.109.363-.054.415.108l.208.433a.344.344 0 0 1-.052.38c-.415.325-1.3.92-2.495.92-1.923 0-3.587-1.408-3.587-3.629 0-2.112 1.56-3.629 3.535-3.629zM34.23 34.85h.415v-.27c0-1.084-.624-1.463-1.404-1.463-.727 0-1.351.325-1.663.487-.156.108-.312.054-.416-.108l-.208-.434c-.052-.162-.052-.324.104-.433.364-.216 1.196-.65 2.287-.65 1.716 0 2.6.921 2.6 2.654v3.088c0 .217.104.325.312.325h.364c.155 0 .311.162.311.325v.433c0 .163-.156.325-.311.325h-1.04c-.572 0-.832-.325-.832-.758v-.108c0-.271.052-.434.052-.434h-.052s-.572 1.463-2.183 1.463c-1.092 0-2.184-.65-2.184-2.113 0-2.22 2.755-2.329 3.847-2.329zm-1.353 3.358c1.144 0 1.82-1.191 1.82-2.22v-.271h-.312c-.624 0-2.703.054-2.703 1.354 0 .596.416 1.137 1.195 1.137zM38.492 33.17h-.832c-.156 0-.312-.162-.312-.324v-.433c0-.163.156-.326.312-.326h.832v-1.57c0-.163.156-.325.312-.325h.676c.156 0 .312.162.312.325v1.57h1.3c.155 0 .311.163.311.325v.434c0 .162-.156.325-.312.325h-1.3v3.25c0 1.408.936 1.57 1.404 1.57.156 0 .312.163.312.326v.487c0 .163-.104.325-.26.325h-.156c-.831 0-2.547-.27-2.547-2.6v-3.358h-.052zM46.186 34.85h.416v-.27c0-1.084-.624-1.463-1.404-1.463-.727 0-1.351.325-1.663.487-.156.108-.312.054-.416-.108l-.208-.434c-.052-.162-.052-.324.104-.433.364-.216 1.196-.65 2.287-.65 1.716 0 2.6.921 2.6 2.654v3.088c0 .217.104.325.312.325h.363c.156 0 .312.162.312.325v.433c0 .163-.156.325-.312.325h-1.04c-.571 0-.831-.325-.831-.758v-.108c0-.271.052-.434.052-.434h-.052s-.572 1.463-2.183 1.463c-1.092 0-2.184-.65-2.184-2.113-.052-2.22 2.755-2.329 3.847-2.329zm-1.404 3.358c1.144 0 1.82-1.191 1.82-2.22v-.271h-.312c-.624 0-2.703.054-2.703 1.354 0 .596.416 1.137 1.195 1.137zM50.19 30.462h-.833c-.156 0-.312-.162-.312-.325v-.433c0-.162.156-.325.312-.325h1.768c.156 0 .312.163.312.325v7.313c0 .595.156.975.728.975h.052c.156 0 .311.162.311.325v.487c0 .163-.103.271-.26.325h-.311c-.936 0-1.768-.379-1.768-2.004v-6.662zM54.608 40.862c.572 0 .988-.433 1.196-.975l.26-.704-2.34-6.012h-.572c-.156 0-.312-.163-.312-.325v-.434c0-.162.156-.325.312-.325h2.444c.156 0 .312.163.312.325v.434c0 .162-.156.325-.312.325h-.572l1.507 4.116c.104.325.104.596.104.596h.052s.052-.325.156-.596l1.456-4.116h-.468c-.156 0-.312-.163-.312-.325v-.434c0-.162.156-.325.312-.325h2.34c.155 0 .311.163.311.325v.434c0 .162-.156.325-.311.325h-.52l-2.652 6.987c-.468 1.192-1.3 1.788-2.34 1.788-.519 0-.935-.163-1.195-.271-.156-.054-.208-.27-.156-.38l.208-.433c.052-.162.26-.216.416-.162.156.054.416.162.676.162zM61.106 36.854h.52c.156 0 .312.163.312.325v.163c0 .596.78.866 1.508.866s1.351-.325 1.351-.866c0-.704-.727-.921-1.663-1.246-.988-.38-2.08-.867-2.08-2.113 0-1.354 1.3-1.895 2.444-1.895.935 0 2.287.379 2.287 1.408v.542c0 .162-.156.325-.312.325h-.52c-.156 0-.312-.163-.312-.325v-.163c0-.433-.52-.704-1.143-.704-.624 0-1.196.27-1.196.812 0 .65.728.921 1.56 1.192 1.04.38 2.183.813 2.183 2.112 0 1.3-1.144 2.059-2.651 2.059-1.196 0-2.6-.542-2.6-1.68v-.433c.052-.216.156-.379.312-.379zM67.969 33.17h-.832c-.156 0-.312-.162-.312-.324v-.433c0-.163.156-.326.312-.326h.832v-1.57c0-.163.156-.325.311-.325h.676c.156 0 .312.162.312.325v1.57h1.3c.156 0 .312.163.312.325v.434c0 .162-.156.325-.312.325h-1.3v3.25c0 1.408.936 1.57 1.404 1.57.156 0 .312.163.312.326v.487c0 .163-.104.325-.26.325h-.156c-.832 0-2.547-.27-2.547-2.6v-3.358h-.052zM72.18 36.854h.52c.155 0 .311.163.311.325v.163c0 .596.78.866 1.508.866s1.352-.325 1.352-.866c0-.704-.728-.921-1.664-1.246-.988-.38-2.08-.867-2.08-2.113 0-1.354 1.3-1.895 2.444-1.895.936 0 2.287.379 2.287 1.408v.542c0 .162-.156.325-.312.325h-.52c-.155 0-.311-.163-.311-.325v-.163c0-.433-.52-.704-1.144-.704-.624 0-1.196.27-1.196.812 0 .65.728.921 1.56 1.192 1.04.38 2.183.813 2.183 2.112 0 1.3-1.143 2.059-2.651 2.059-1.196 0-2.6-.542-2.6-1.68v-.433c0-.216.157-.379.312-.379zM81.745 38.046h.884V33.17h-.936c-.104 0-.156-.054-.156-.163v-.704c0-.108.052-.162.156-.162h.936v-.325c0-2.221 1.611-2.492 2.391-2.492h.468c.104 0 .156.054.156.162v.759c0 .108-.104.162-.156.162h-.312c-.416 0-1.248.109-1.248 1.355v.379h1.456c.104 0 .156.054.156.162v.704c0 .109-.052.163-.156.163h-1.456v4.875h1.04c.104 0 .156.054.156.162v.705c0 .108-.052.162-.156.162h-3.223c-.104 0-.156-.054-.156-.162v-.705c0-.054.052-.162.156-.162zM89.907 31.98c1.975 0 3.587 1.516 3.587 3.628 0 2.113-1.612 3.63-3.587 3.63-1.976 0-3.587-1.517-3.587-3.63 0-2.112 1.611-3.629 3.587-3.629zm0 6.12c1.248 0 2.287-1.03 2.287-2.492s-1.04-2.437-2.287-2.437c-1.248 0-2.287 1.029-2.287 2.437 0 1.463 1.04 2.492 2.287 2.492zM94.794 38.046h.831v-4.55c0-.217-.103-.325-.311-.325h-.676c-.104 0-.156-.054-.156-.163v-.704c0-.108.052-.162.156-.162h1.351c.572 0 .832.27.832.812v.433c0 .271-.052.488-.052.488h.052c.312-1.03 1.092-1.788 2.08-1.788h.208c.104 0 .156.055.156.163v.975c0 .108-.104.162-.156.162H98.9c-1.404 0-2.028 1.517-2.028 2.871V38.1h.832c.104 0 .156.054.156.162v.705c0 .108-.052.162-.156.162h-2.911c-.104 0-.156-.054-.156-.162v-.759c0-.054.052-.162.156-.162z"/>
            <g>
                <path d="M107.27 34.742h.416v-.271c0-1.083-.623-1.463-1.403-1.463-.728 0-1.352.325-1.664.488-.156.108-.312.054-.364-.109l-.26-.433c-.052-.162-.052-.325.104-.379.364-.217 1.196-.65 2.288-.65 1.715 0 2.6.92 2.6 2.654v3.088c0 .216.103.325.311.325h.364c.156 0 .26.108.26.27v.434c0 .162-.104.27-.26.27h-1.04c-.572 0-.832-.324-.832-.758V38.1c0-.27.052-.433.052-.433h-.052s-.571 1.462-2.183 1.462c-1.092 0-2.183-.65-2.183-2.112-.052-2.113 2.703-2.275 3.847-2.275zm-1.403 3.412c1.144 0 1.82-1.192 1.82-2.22v-.271h-.312c-.624 0-2.704.054-2.704 1.354 0 .541.416 1.137 1.196 1.137zM113.613 40.754c.468 0 1.404-.162 1.404-1.57v-6.067h-.832c-.156 0-.26-.109-.26-.271v-.433c0-.163.104-.271.26-.271h2.131v7.15c0 2.329-1.715 2.6-2.547 2.6h-.156c-.156 0-.26-.163-.26-.271v-.488c-.052-.27.104-.379.26-.379zm1.663-11.429h.78c.156 0 .26.108.26.27v.76c0 .162-.104.27-.26.27h-.78c-.155 0-.26-.108-.26-.27v-.76c-.051-.108.105-.27.26-.27zM118.76 33.117h-.832a.306.306 0 0 1-.312-.325v-.434c0-.162.104-.325.312-.325h2.08v4.171c0 .975.207 1.733 1.247 1.733 1.352 0 2.131-1.354 2.131-2.708v-2.167h-.831a.306.306 0 0 1-.312-.324v-.434c0-.162.104-.325.312-.325h1.82c.155 0 .311.109.311.325v5.308c0 .163.104.326.312.326h.416c.156 0 .312.108.312.324v.434c0 .162-.104.325-.312.325h-1.092c-.572 0-.832-.271-.832-.759v-.324c0-.217.052-.434.052-.434h-.052a2.744 2.744 0 0 1-2.547 1.625c-1.456 0-2.183-.812-2.183-2.654v-3.358zM126.974 36.8h.52c.155 0 .311.108.311.325v.162c0 .596.78.867 1.508.867s1.352-.325 1.352-.867c0-.704-.728-.92-1.664-1.245-.988-.38-2.08-.867-2.08-2.113 0-1.354 1.3-1.896 2.444-1.896.936 0 2.287.38 2.287 1.409v.541c0 .163-.104.325-.312.325h-.52a.306.306 0 0 1-.311-.325v-.162c0-.434-.52-.704-1.144-.704-.624 0-1.196.27-1.196.812 0 .65.728.921 1.56 1.192 1.04.379 2.183.812 2.183 2.112s-1.143 2.059-2.651 2.059c-1.196 0-2.6-.542-2.6-1.68v-.433c0-.27.105-.379.313-.379zM133.784 33.117h-.832a.306.306 0 0 1-.312-.325v-.434c0-.162.104-.325.312-.325h.832v-1.625c0-.162.104-.325.312-.325h.676c.155 0 .311.109.311.325v1.625h1.3c.156 0 .312.109.312.325v.434c0 .162-.104.325-.312.325h-1.3v3.25c0 1.408.936 1.57 1.404 1.57.156 0 .312.109.312.326v.541c0 .163-.104.271-.26.325h-.208c-.832 0-2.547-.27-2.547-2.6v-3.412zM140.906 32.087h2.391c.156 0 .312.109.312.325v.434c0 .162-.104.325-.312.325h-.623l1.143 4.008c.104.271.104.65.104.65h.052s.052-.379.104-.65l1.404-4.82c.052-.109.156-.217.26-.217h.728c.104 0 .26.108.26.216l1.403 4.821c.104.271.104.65.104.65h.052s.052-.379.104-.65l1.144-4.008h-.624a.306.306 0 0 1-.312-.325v-.433c0-.163.104-.325.312-.325h2.391c.156 0 .312.108.312.325v.433c0 .162-.104.325-.312.325h-.52l-1.663 5.687c-.052.109-.156.217-.26.217h-.988c-.104 0-.26-.108-.26-.217l-1.351-4.441c-.104-.325-.104-.65-.104-.65h-.052l-.104.65-1.352 4.441c-.052.109-.156.217-.26.217h-.988c-.104 0-.26-.108-.26-.217l-1.663-5.687h-.52a.306.306 0 0 1-.312-.325v-.433c-.052-.217.104-.325.26-.325zM155.774 31.925c1.976 0 3.587 1.517 3.587 3.63 0 2.112-1.611 3.628-3.587 3.628-1.975 0-3.587-1.516-3.587-3.629 0-2.112 1.612-3.629 3.587-3.629zm0 6.12c1.248 0 2.288-1.028 2.288-2.49 0-1.463-1.04-2.438-2.288-2.438-1.248 0-2.287 1.029-2.287 2.437s1.04 2.492 2.287 2.492zM160.765 37.992h.728v-4.55c0-.217-.104-.325-.312-.325h-.52a.306.306 0 0 1-.312-.325v-.434c0-.162.104-.325.312-.325h1.196c.571 0 .831.271.831.813v.433c0 .271-.052.488-.052.488h.052c.312-1.03 1.092-1.788 2.08-1.788h.052c.156 0 .26.163.26.325v.704c0 .163-.156.325-.312.325h-.052c-1.404 0-2.028 1.517-2.028 2.871v1.842h.676c.156 0 .312.108.312.325v.433c0 .163-.104.325-.312.325h-2.6a.306.306 0 0 1-.311-.325v-.433c.052-.271.156-.38.312-.38zM166.483 30.354h-.831a.306.306 0 0 1-.312-.325v-.433c0-.163.104-.325.312-.325h2.08v7.637c0 .596.155.975.727.975h.052c.156 0 .312.163.312.325v.488c0 .162-.104.27-.26.27h-.312c-.936 0-1.768-.378-1.768-2.003v-6.609zM172.826 31.925c1.507 0 2.027 1.138 2.027 1.138h.052s-.052-.217-.052-.542v-2.167h-.831a.306.306 0 0 1-.312-.325v-.433c0-.163.104-.325.312-.325h1.82c.155 0 .311.108.311.325v8.07c0 .217.104.326.312.326h.364c.156 0 .312.108.312.325v.433c0 .162-.104.325-.312.325h-1.04c-.572 0-.832-.325-.832-.758v-.109c0-.216.052-.379.052-.379h-.052s-.52 1.409-2.235 1.409c-1.768 0-2.911-1.463-2.911-3.63-.052-2.275 1.195-3.683 3.015-3.683zm.156 6.12c.988 0 1.923-.758 1.923-2.437 0-1.3-.624-2.491-1.871-2.491-1.04 0-1.924.866-1.924 2.437-.052 1.517.728 2.492 1.872 2.492zM178.752 37.558h.78c.156 0 .312.109.312.325v.813c0 .162-.104.325-.312.325h-.78a.306.306 0 0 1-.312-.325v-.813c.052-.162.156-.325.312-.325z"/>
            </g>
        </g>
    </g>
</svg>
