<svg xmlns="http://www.w3.org/2000/svg" xmlns:xlink="http://www.w3.org/1999/xlink" width="1019" height="6" viewBox="0 0 1019 6">
    <defs>
        <path id="a" d="M0 0h1019v6H0z"/>
    </defs>
    <g fill="none" fill-rule="evenodd" transform="matrix(1 0 0 -1 0 6)">
        <mask id="b" fill="#fff">
            <use xlink:href="#a"/>
        </mask>
        <path fill="#F39B64" d="M14.752 6H1.134C.507 6 0 4.654 0 2.997 0 1.346.507 0 1.134 0h13.618c.627 0 1.136 1.346 1.136 2.997 0 1.657-.51 3.003-1.136 3.003m5.674 0H19.29c-.627 0-1.134-1.346-1.134-3.003 0-1.651.507-2.997 1.134-2.997h1.136c.627 0 1.134 1.346 1.134 2.997C21.56 4.654 21.053 6 20.426 6M26.1 6h-1.134c-.627 0-1.134-1.346-1.134-3.003 0-1.651.507-2.997 1.134-2.997h1.134c.627 0 1.136 1.346 1.136 2.997 0 1.657-.51 3.003-1.136 3.003m18.156 0H30.637c-.627 0-1.134-1.346-1.134-3.003 0-1.651.507-2.997 1.134-2.997h13.618c.627 0 1.134 1.346 1.134 2.997 0 1.657-.507 3.003-1.134 3.003m5.674 0h-1.136c-.627 0-1.134-1.346-1.134-3.003 0-1.651.507-2.997 1.134-2.997h1.136c.627 0 1.134 1.346 1.134 2.997C51.063 4.654 50.556 6 49.93 6m5.673 0h-1.134c-.627 0-1.137-1.346-1.137-3.003 0-1.651.51-2.997 1.137-2.997h1.134c.627 0 1.134 1.346 1.134 2.997 0 1.657-.507 3.003-1.134 3.003m18.156 0H60.14c-.627 0-1.134-1.346-1.134-3.003 0-1.651.507-2.997 1.134-2.997h13.618c.627 0 1.136 1.346 1.136 2.997 0 1.657-.51 3.003-1.136 3.003m5.674 0h-1.134c-.627 0-1.136-1.346-1.136-3.003 0-1.651.51-2.997 1.136-2.997h1.134c.627 0 1.134 1.346 1.134 2.997C80.566 4.654 80.06 6 79.432 6m5.675 0H83.97c-.627 0-1.136-1.346-1.136-3.003 0-1.651.509-2.997 1.136-2.997h1.136c.625 0 1.134 1.346 1.134 2.997 0 1.657-.51 3.003-1.134 3.003m18.154 0H89.645c-.627 0-1.136-1.346-1.136-3.003 0-1.651.51-2.997 1.136-2.997h13.616c.627 0 1.134 1.346 1.134 2.997 0 1.657-.507 3.003-1.134 3.003m5.674 0h-1.134c-.627 0-1.136-1.346-1.136-3.003 0-1.651.51-2.997 1.136-2.997h1.134c.627 0 1.134 1.346 1.134 2.997 0 1.657-.507 3.003-1.134 3.003m5.673 0h-1.134c-.627 0-1.134-1.346-1.134-3.003 0-1.651.507-2.997 1.134-2.997h1.134c.627 0 1.136 1.346 1.136 2.997 0 1.657-.51 3.003-1.136 3.003m18.156 0h-13.616c-.627 0-1.136-1.346-1.136-3.003 0-1.651.51-2.997 1.136-2.997h13.616c.627 0 1.136 1.346 1.136 2.997 0 1.657-.51 3.003-1.136 3.003m5.674 0h-1.134c-.627 0-1.134-1.346-1.134-3.003 0-1.651.507-2.997 1.134-2.997h1.134c.627 0 1.134 1.346 1.134 2.997 0 1.657-.507 3.003-1.134 3.003m5.673 0h-1.134c-.625 0-1.134-1.346-1.134-3.003 0-1.651.509-2.997 1.134-2.997h1.134c.627 0 1.136 1.346 1.136 2.997 0 1.657-.51 3.003-1.136 3.003m18.156 0H148.65c-.627 0-1.134-1.346-1.134-3.003 0-1.651.507-2.997 1.134-2.997h13.616c.627 0 1.134 1.346 1.134 2.997 0 1.657-.507 3.003-1.134 3.003m5.674 0h-1.134c-.627 0-1.136-1.346-1.136-3.003 0-1.651.51-2.997 1.136-2.997h1.134c.627 0 1.137 1.346 1.137 2.997 0 1.657-.51 3.003-1.137 3.003m5.673 0h-1.134c-.625 0-1.134-1.346-1.134-3.003 0-1.651.509-2.997 1.134-2.997h1.134c.627 0 1.134 1.346 1.134 2.997 0 1.657-.507 3.003-1.134 3.003m18.158 0h-13.617c-.627 0-1.137-1.346-1.137-3.003 0-1.651.51-2.997 1.137-2.997h13.617c.627 0 1.134 1.346 1.134 2.997 0 1.657-.507 3.003-1.134 3.003m5.672 0h-1.134c-.627 0-1.136-1.346-1.136-3.003 0-1.651.51-2.997 1.136-2.997h1.134c.628 0 1.135 1.346 1.135 2.997 0 1.657-.507 3.003-1.135 3.003m5.675 0h-1.136c-.627 0-1.134-1.346-1.134-3.003 0-1.651.507-2.997 1.134-2.997h1.136c.627 0 1.134 1.346 1.134 2.997 0 1.657-.507 3.003-1.134 3.003m18.156 0h-13.617c-.627 0-1.135-1.346-1.135-3.003 0-1.651.508-2.997 1.135-2.997h13.617c.627 0 1.134 1.346 1.134 2.997 0 1.657-.507 3.003-1.134 3.003m5.673 0h-1.135c-.627 0-1.136-1.346-1.136-3.003 0-1.651.51-2.997 1.136-2.997h1.135c.627 0 1.136 1.346 1.136 2.997 0 1.657-.51 3.003-1.136 3.003m5.674 0h-1.136c-.627 0-1.134-1.346-1.134-3.003 0-1.651.507-2.997 1.134-2.997h1.136c.627 0 1.134 1.346 1.134 2.997 0 1.657-.507 3.003-1.134 3.003m18.156 0h-13.617c-.627 0-1.134-1.346-1.134-3.003 0-1.651.507-2.997 1.134-2.997h13.617c.627 0 1.134 1.346 1.134 2.997 0 1.657-.507 3.003-1.134 3.003m5.675 0h-1.136c-.627 0-1.135-1.346-1.135-3.003 0-1.651.508-2.997 1.135-2.997h1.136c.625 0 1.134 1.346 1.134 2.997 0 1.657-.51 3.003-1.134 3.003m5.672 0h-1.134c-.627 0-1.136-1.346-1.136-3.003 0-1.651.51-2.997 1.136-2.997h1.134c.627 0 1.134 1.346 1.134 2.997 0 1.657-.507 3.003-1.134 3.003m18.156 0h-13.617c-.627 0-1.134-1.346-1.134-3.003 0-1.651.507-2.997 1.134-2.997h13.617c.627 0 1.134 1.346 1.134 2.997 0 1.657-.507 3.003-1.134 3.003m5.675 0h-1.136c-.627 0-1.137-1.346-1.137-3.003 0-1.651.51-2.997 1.137-2.997h1.136c.625 0 1.134 1.346 1.134 2.997 0 1.657-.51 3.003-1.134 3.003m5.672 0h-1.134c-.627 0-1.134-1.346-1.134-3.003 0-1.651.507-2.997 1.134-2.997h1.134c.627 0 1.134 1.346 1.134 2.997 0 1.657-.507 3.003-1.134 3.003m18.156 0h-13.617c-.627 0-1.136-1.346-1.136-3.003 0-1.651.509-2.997 1.136-2.997h13.617c.627 0 1.136 1.346 1.136 2.997 0 1.657-.509 3.003-1.136 3.003m5.673 0h-1.134c-.625 0-1.134-1.346-1.134-3.003 0-1.651.509-2.997 1.134-2.997h1.134c.627 0 1.136 1.346 1.136 2.997 0 1.657-.51 3.003-1.136 3.003m5.674 0h-1.134c-.627 0-1.136-1.346-1.136-3.003 0-1.651.51-2.997 1.136-2.997h1.134c.627 0 1.137 1.346 1.137 2.997 0 1.657-.51 3.003-1.137 3.003m18.156 0H325.67c-.625 0-1.134-1.346-1.134-3.003 0-1.651.509-2.997 1.134-2.997h13.617c.627 0 1.134 1.346 1.134 2.997 0 1.657-.507 3.003-1.134 3.003m5.673 0h-1.134c-.625 0-1.134-1.346-1.134-3.003 0-1.651.509-2.997 1.134-2.997h1.134c.627 0 1.136 1.346 1.136 2.997 0 1.657-.51 3.003-1.136 3.003m5.674 0H349.5c-.627 0-1.134-1.346-1.134-3.003 0-1.651.507-2.997 1.134-2.997h1.134c.627 0 1.134 1.346 1.134 2.997 0 1.657-.507 3.003-1.134 3.003m18.156 0h-13.617c-.625 0-1.134-1.346-1.134-3.003 0-1.651.509-2.997 1.134-2.997h13.617c.627 0 1.136 1.346 1.136 2.997 0 1.657-.509 3.003-1.136 3.003m5.675 0h-1.136c-.625 0-1.134-1.346-1.134-3.003 0-1.651.509-2.997 1.134-2.997h1.136c.627 0 1.134 1.346 1.134 2.997 0 1.657-.507 3.003-1.134 3.003m5.672 0h-1.134c-.627 0-1.134-1.346-1.134-3.003 0-1.651.507-2.997 1.134-2.997h1.134c.627 0 1.137 1.346 1.137 2.997 0 1.657-.51 3.003-1.137 3.003m18.156 0h-13.617c-.625 0-1.134-1.346-1.134-3.003 0-1.651.509-2.997 1.134-2.997h13.617c.627 0 1.137 1.346 1.137 2.997 0 1.657-.51 3.003-1.137 3.003m5.675 0h-1.136c-.627 0-1.134-1.346-1.134-3.003 0-1.651.507-2.997 1.134-2.997h1.136c.627 0 1.134 1.346 1.134 2.997 0 1.657-.507 3.003-1.134 3.003m5.673 0h-1.135c-.627 0-1.134-1.346-1.134-3.003 0-1.651.507-2.997 1.134-2.997h1.135c.627 0 1.136 1.346 1.136 2.997 0 1.657-.51 3.003-1.136 3.003m18.155 0H414.18c-.625 0-1.134-1.346-1.134-3.003 0-1.651.51-2.997 1.134-2.997h13.617c.627 0 1.134 1.346 1.134 2.997 0 1.657-.507 3.003-1.134 3.003m5.675 0h-1.136c-.627 0-1.134-1.346-1.134-3.003 0-1.651.507-2.997 1.134-2.997h1.136c.627 0 1.134 1.346 1.134 2.997 0 1.657-.507 3.003-1.134 3.003m5.673 0h-1.135c-.627 0-1.134-1.346-1.134-3.003 0-1.651.507-2.997 1.134-2.997h1.135c.627 0 1.134 1.346 1.134 2.997 0 1.657-.507 3.003-1.134 3.003m18.158 0h-13.62c-.625 0-1.134-1.346-1.134-3.003 0-1.651.51-2.997 1.134-2.997h13.62c.624 0 1.134 1.346 1.134 2.997 0 1.657-.51 3.003-1.134 3.003m5.672 0h-1.134c-.627 0-1.136-1.346-1.136-3.003 0-1.651.509-2.997 1.136-2.997h1.134c.627 0 1.134 1.346 1.134 2.997 0 1.657-.507 3.003-1.134 3.003m5.675 0h-1.136c-.627 0-1.135-1.346-1.135-3.003 0-1.651.508-2.997 1.135-2.997h1.136c.625 0 1.134 1.346 1.134 2.997 0 1.657-.51 3.003-1.134 3.003m18.156 0h-13.618c-.627 0-1.136-1.346-1.136-3.003 0-1.651.51-2.997 1.136-2.997h13.618c.625 0 1.134 1.346 1.134 2.997 0 1.657-.51 3.003-1.134 3.003m5.672 0h-1.134c-.627 0-1.134-1.346-1.134-3.003 0-1.651.507-2.997 1.134-2.997h1.134c.627 0 1.134 1.346 1.134 2.997 0 1.657-.507 3.003-1.134 3.003m5.675 0h-1.136c-.627 0-1.137-1.346-1.137-3.003 0-1.651.51-2.997 1.137-2.997h1.136c.625 0 1.134 1.346 1.134 2.997 0 1.657-.51 3.003-1.134 3.003m18.154 0H502.69c-.627 0-1.134-1.346-1.134-3.003 0-1.651.507-2.997 1.134-2.997h13.616c.627 0 1.136 1.346 1.136 2.997 0 1.657-.51 3.003-1.136 3.003m5.674 0h-1.134c-.627 0-1.136-1.346-1.136-3.003 0-1.651.51-2.997 1.136-2.997h1.134c.627 0 1.136 1.346 1.136 2.997 0 1.657-.509 3.003-1.136 3.003m5.675 0h-1.136c-.625 0-1.134-1.346-1.134-3.003 0-1.651.509-2.997 1.134-2.997h1.136c.625 0 1.134 1.346 1.134 2.997 0 1.657-.51 3.003-1.134 3.003m18.154 0h-13.616c-.627 0-1.136-1.346-1.136-3.003 0-1.651.51-2.997 1.136-2.997h13.616c.627 0 1.136 1.346 1.136 2.997 0 1.657-.51 3.003-1.136 3.003m5.674 0h-1.134c-.627 0-1.134-1.346-1.134-3.003 0-1.651.507-2.997 1.134-2.997h1.134c.627 0 1.136 1.346 1.136 2.997 0 1.657-.509 3.003-1.136 3.003m5.675 0h-1.136c-.625 0-1.134-1.346-1.134-3.003 0-1.651.509-2.997 1.134-2.997h1.136c.627 0 1.136 1.346 1.136 2.997 0 1.657-.51 3.003-1.136 3.003m18.156 0h-13.618c-.627 0-1.134-1.346-1.134-3.003 0-1.651.507-2.997 1.134-2.997h13.618c.627 0 1.134 1.346 1.134 2.997 0 1.657-.507 3.003-1.134 3.003m5.672 0h-1.134c-.627 0-1.134-1.346-1.134-3.003 0-1.651.507-2.997 1.134-2.997h1.134c.627 0 1.134 1.346 1.134 2.997 0 1.657-.507 3.003-1.134 3.003m5.675 0h-1.136c-.625 0-1.134-1.346-1.134-3.003 0-1.651.509-2.997 1.134-2.997h1.136c.627 0 1.136 1.346 1.136 2.997 0 1.657-.509 3.003-1.136 3.003m18.156 0h-13.618c-.627 0-1.134-1.346-1.134-3.003 0-1.651.507-2.997 1.134-2.997h13.618c.627 0 1.134 1.346 1.134 2.997 0 1.657-.507 3.003-1.134 3.003m5.674 0h-1.136c-.627 0-1.134-1.346-1.134-3.003 0-1.651.507-2.997 1.134-2.997h1.136c.627 0 1.135 1.346 1.135 2.997 0 1.657-.508 3.003-1.135 3.003m5.673 0h-1.134c-.627 0-1.136-1.346-1.136-3.003 0-1.651.509-2.997 1.136-2.997h1.134c.627 0 1.134 1.346 1.134 2.997 0 1.657-.507 3.003-1.134 3.003m18.156 0h-13.618c-.627 0-1.134-1.346-1.134-3.003 0-1.651.507-2.997 1.134-2.997h13.618c.627 0 1.134 1.346 1.134 2.997 0 1.657-.507 3.003-1.134 3.003m5.675 0h-1.137c-.627 0-1.134-1.346-1.134-3.003 0-1.651.507-2.997 1.134-2.997h1.137c.624 0 1.134 1.346 1.134 2.997 0 1.657-.51 3.003-1.134 3.003m5.672 0h-1.134c-.627 0-1.134-1.346-1.134-3.003 0-1.651.507-2.997 1.134-2.997h1.134c.627 0 1.136 1.346 1.136 2.997 0 1.657-.509 3.003-1.136 3.003m18.156 0h-13.615c-.627 0-1.137-1.346-1.137-3.003 0-1.651.51-2.997 1.137-2.997h13.615c.627 0 1.136 1.346 1.136 2.997 0 1.657-.509 3.003-1.136 3.003m5.675 0h-1.135c-.627 0-1.136-1.346-1.136-3.003 0-1.651.51-2.997 1.136-2.997h1.135c.624 0 1.134 1.346 1.134 2.997 0 1.657-.51 3.003-1.134 3.003m5.672 0h-1.134c-.627 0-1.136-1.346-1.136-3.003 0-1.651.509-2.997 1.136-2.997h1.134c.627 0 1.134 1.346 1.134 2.997 0 1.657-.507 3.003-1.134 3.003m18.156 0h-13.615c-.627 0-1.134-1.346-1.134-3.003 0-1.651.507-2.997 1.134-2.997h13.615c.627 0 1.136 1.346 1.136 2.997 0 1.657-.509 3.003-1.136 3.003m5.675 0h-1.134c-.627 0-1.137-1.346-1.137-3.003 0-1.651.51-2.997 1.137-2.997H699c.627 0 1.136 1.346 1.136 2.997 0 1.657-.51 3.003-1.136 3.003m5.672 0h-1.134c-.627 0-1.134-1.346-1.134-3.003 0-1.651.507-2.997 1.134-2.997h1.134c.627 0 1.136 1.346 1.136 2.997 0 1.657-.509 3.003-1.136 3.003m18.156 0h-13.615c-.627 0-1.136-1.346-1.136-3.003 0-1.651.509-2.997 1.136-2.997h13.615c.627 0 1.134 1.346 1.134 2.997 0 1.657-.507 3.003-1.134 3.003m5.675 0h-1.137c-.624 0-1.134-1.346-1.134-3.003 0-1.651.51-2.997 1.134-2.997h1.137c.627 0 1.136 1.346 1.136 2.997 0 1.657-.51 3.003-1.136 3.003m5.674 0h-1.136c-.627 0-1.134-1.346-1.134-3.003 0-1.651.507-2.997 1.134-2.997h1.136c.627 0 1.134 1.346 1.134 2.997 0 1.657-.507 3.003-1.134 3.003m18.156 0h-13.617c-.627 0-1.134-1.346-1.134-3.003 0-1.651.507-2.997 1.134-2.997h13.617c.627 0 1.134 1.346 1.134 2.997 0 1.657-.507 3.003-1.134 3.003m5.673 0h-1.134c-.627 0-1.137-1.346-1.137-3.003 0-1.651.51-2.997 1.137-2.997h1.134c.627 0 1.134 1.346 1.134 2.997 0 1.657-.507 3.003-1.134 3.003m5.674 0h-1.136c-.627 0-1.134-1.346-1.134-3.003 0-1.651.507-2.997 1.134-2.997h1.136c.627 0 1.134 1.346 1.134 2.997 0 1.657-.507 3.003-1.134 3.003m18.156 0H768.22c-.627 0-1.136-1.346-1.136-3.003 0-1.651.509-2.997 1.136-2.997h13.617c.627 0 1.134 1.346 1.134 2.997 0 1.657-.507 3.003-1.134 3.003m5.673 0h-1.134c-.627 0-1.134-1.346-1.134-3.003 0-1.651.507-2.997 1.134-2.997h1.134c.627 0 1.136 1.346 1.136 2.997 0 1.657-.51 3.003-1.136 3.003m5.674 0h-1.134c-.627 0-1.136-1.346-1.136-3.003 0-1.651.51-2.997 1.136-2.997h1.134c.627 0 1.135 1.346 1.135 2.997 0 1.657-.508 3.003-1.135 3.003m18.156 0h-13.617c-.627 0-1.134-1.346-1.134-3.003 0-1.651.507-2.997 1.134-2.997h13.617c.627 0 1.134 1.346 1.134 2.997 0 1.657-.507 3.003-1.134 3.003m5.673 0h-1.134c-.627 0-1.136-1.346-1.136-3.003 0-1.651.509-2.997 1.136-2.997h1.134c.627 0 1.136 1.346 1.136 2.997 0 1.657-.51 3.003-1.136 3.003m5.674 0h-1.134c-.627 0-1.134-1.346-1.134-3.003 0-1.651.507-2.997 1.134-2.997h1.134c.627 0 1.137 1.346 1.137 2.997 0 1.657-.51 3.003-1.137 3.003m18.156 0h-13.617c-.625 0-1.134-1.346-1.134-3.003 0-1.651.509-2.997 1.134-2.997h13.617c.627 0 1.137 1.346 1.137 2.997 0 1.657-.51 3.003-1.137 3.003m5.673 0h-1.134c-.625 0-1.134-1.346-1.134-3.003 0-1.651.509-2.997 1.134-2.997h1.134c.627 0 1.136 1.346 1.136 2.997 0 1.657-.51 3.003-1.136 3.003m5.675 0h-1.135c-.627 0-1.136-1.346-1.136-3.003 0-1.651.51-2.997 1.136-2.997h1.135c.627 0 1.134 1.346 1.134 2.997 0 1.657-.507 3.003-1.134 3.003m18.155 0H856.73c-.625 0-1.134-1.346-1.134-3.003 0-1.651.51-2.997 1.134-2.997h13.617c.627 0 1.137 1.346 1.137 2.997 0 1.657-.51 3.003-1.137 3.003m5.675 0h-1.136c-.627 0-1.134-1.346-1.134-3.003 0-1.651.507-2.997 1.134-2.997h1.136c.627 0 1.134 1.346 1.134 2.997 0 1.657-.507 3.003-1.134 3.003m5.673 0h-1.134c-.627 0-1.135-1.346-1.135-3.003 0-1.651.508-2.997 1.135-2.997h1.134c.627 0 1.136 1.346 1.136 2.997 0 1.657-.51 3.003-1.136 3.003m18.155 0h-13.617c-.625 0-1.134-1.346-1.134-3.003 0-1.651.51-2.997 1.134-2.997h13.617c.627 0 1.135 1.346 1.135 2.997 0 1.657-.508 3.003-1.135 3.003m5.675 0h-1.136c-.627 0-1.134-1.346-1.134-3.003 0-1.651.507-2.997 1.134-2.997h1.136c.627 0 1.134 1.346 1.134 2.997 0 1.657-.507 3.003-1.134 3.003m5.675 0h-1.136c-.627 0-1.135-1.346-1.135-3.003 0-1.651.508-2.997 1.135-2.997h1.136c.625 0 1.134 1.346 1.134 2.997 0 1.657-.51 3.003-1.134 3.003m18.156 0h-13.618c-.627 0-1.134-1.346-1.134-3.003 0-1.651.507-2.997 1.134-2.997h13.618c.625 0 1.134 1.346 1.134 2.997 0 1.657-.51 3.003-1.134 3.003m5.672 0h-1.134c-.627 0-1.136-1.346-1.136-3.003 0-1.651.51-2.997 1.136-2.997h1.134c.627 0 1.134 1.346 1.134 2.997 0 1.657-.507 3.003-1.134 3.003m5.675 0h-1.136c-.627 0-1.134-1.346-1.134-3.003 0-1.651.507-2.997 1.134-2.997h1.136c.625 0 1.134 1.346 1.134 2.997 0 1.657-.51 3.003-1.134 3.003m18.156 0H945.24c-.627 0-1.136-1.346-1.136-3.003 0-1.651.51-2.997 1.136-2.997h13.618c.625 0 1.134 1.346 1.134 2.997 0 1.657-.51 3.003-1.134 3.003m5.672 0h-1.134c-.627 0-1.134-1.346-1.134-3.003 0-1.651.507-2.997 1.134-2.997h1.134c.627 0 1.136 1.346 1.136 2.997 0 1.657-.509 3.003-1.136 3.003m5.675 0h-1.134c-.627 0-1.136-1.346-1.136-3.003 0-1.651.509-2.997 1.136-2.997h1.134c.625 0 1.134 1.346 1.134 2.997 0 1.657-.51 3.003-1.134 3.003m18.154 0h-13.616c-.627 0-1.134-1.346-1.134-3.003 0-1.651.507-2.997 1.134-2.997h13.616c.627 0 1.136 1.346 1.136 2.997 0 1.657-.51 3.003-1.136 3.003m5.674 0H992.9c-.627 0-1.136-1.346-1.136-3.003 0-1.651.51-2.997 1.136-2.997h1.134c.627 0 1.134 1.346 1.134 2.997 0 1.657-.507 3.003-1.134 3.003m5.675 0h-1.136c-.625 0-1.134-1.346-1.134-3.003 0-1.651.509-2.997 1.134-2.997h1.136c.627 0 1.136 1.346 1.136 2.997 0 1.657-.51 3.003-1.136 3.003m18.156 0h-13.618c-.627 0-1.134-1.346-1.134-3.003 0-1.651.507-2.997 1.134-2.997h13.618c.627 0 1.136 1.346 1.136 2.997 0 1.657-.51 3.003-1.136 3.003" mask="url(#b)"/>
    </g>
</svg>
