<svg xmlns="http://www.w3.org/2000/svg" width="355" height="588" viewBox="0 0 355 588">
    <g fill="none" fill-rule="evenodd" transform="translate(-221 -5)">
        <g stroke-linecap="round" opacity=".75">
            <path stroke="#FE3B1F" stroke-dasharray="9.142300000000001,3.0474,0.7619,3.0474,0.7619,3.0474" stroke-width="1.524" d="M306.945 8.902v574.53M138.175 63.762l337.54 464.81"/>
            <path stroke="#2D3E95" stroke-dasharray="8.5303,2.8434,0.7109,2.8434,0.7109,2.8434" stroke-width="1.422" d="M174.444 84.015l265.002 424.193"/>
            <path stroke="#FE3B1F" stroke-dasharray="9.142300000000001,3.0474,0.7619,3.0474,0.7619,3.0474" stroke-width="1.524" d="M208.71 26.15l196.47 539.922"/>
            <path stroke="#2D3E95" stroke-dasharray="9.4636,3.1545,0.7886,3.1545,0.7886,3.1545" stroke-width="1.577" d="M222.06.223L391.72 592"/>
            <path stroke="#FE3B1F" stroke-dasharray="9.142300000000001,3.0474,0.7619,3.0474,0.7619,3.0474" stroke-width="1.524" d="M247.203 15.134l119.484 561.955"/>
            <path stroke="#FE3B1F" stroke-dasharray="8.1957,2.7319,0.6830000000000001,2.7319,0.6830000000000001,2.7319" stroke-width="1.366" d="M290.813 65.877l32.264 460.58M198.585 92.25l216.72 407.723"/>
            <path stroke="#2D3E95" stroke-dasharray="8.8523,2.9508,0.7377,2.9508,0.7377,2.9508" stroke-width="1.475" d="M269.453 29.377l74.984 533.468M197.362 50.075l219.055 492.072"/>
            <path stroke="#2D3E95" stroke-dasharray="9.142300000000001,3.0474,0.7619,3.0474,0.7619,3.0474" stroke-width="1.524" d="M122.377 76.114L491.513 516.22"/>
            <path stroke="#FE3B1F" stroke-dasharray="9.142300000000001,3.0474,0.7619,3.0474,0.7619,3.0474" stroke-width="1.524" d="M28.258 226.674L585.632 365.66"/>
            <path stroke="#2D3E95" stroke-dasharray="8.5303,2.8434,0.7109,2.8434,0.7109,2.8434" stroke-width="1.422" d="M69.088 218.884L544.69 373.45"/>
            <path stroke="#FE3B1F" stroke-dasharray="9.142300000000001,3.0474,0.7619,3.0474,0.7619,3.0474" stroke-width="1.524" d="M58.185 152.451l497.52 287.32"/>
            <path stroke="#2D3E95" stroke-dasharray="9.4636,3.1545,0.7886,3.1545,0.7886,3.1545" stroke-width="1.577" d="M51.844 123.964l510.202 344.295"/>
            <path stroke="#FE3B1F" stroke-dasharray="9.142300000000001,3.0474,0.7619,3.0474,0.7619,3.0474" stroke-width="1.524" d="M80.658 119.29l452.574 353.642"/>
            <path stroke="#FE3B1F" stroke-dasharray="8.1957,2.7319,0.6830000000000001,2.7319,0.6830000000000001,2.7319" stroke-width="1.366" d="M146.63 130.084l320.63 332.054M92.896 209.648l427.987 172.926"/>
            <path stroke="#2D3E95" stroke-dasharray="8.8523,2.9508,0.7377,2.9508,0.7377,2.9508" stroke-width="1.475" d="M106.802 115.952l400.286 360.43M64.971 178.045L548.92 414.177"/>
            <path stroke="#2D3E95" stroke-dasharray="9.142300000000001,3.0474,0.7619,3.0474,0.7619,3.0474" stroke-width="1.524" d="M24.142 246.259l565.606 99.705"/>
            <path stroke="#FE3B1F" stroke-dasharray="9.142300000000001,3.0474,0.7619,3.0474,0.7619,3.0474" stroke-width="1.524" d="M48.84 422.078l516.21-251.934"/>
            <path stroke="#2D3E95" stroke-dasharray="8.5303,2.8434,0.7109,2.8434,0.7109,2.8434" stroke-width="1.422" d="M75.095 389.808l463.7-187.393"/>
            <path stroke="#FE3B1F" stroke-dasharray="9.142300000000001,3.0474,0.7619,3.0474,0.7619,3.0474" stroke-width="1.524" d="M24.142 345.964l565.606-99.705"/>
            <path stroke="#2D3E95" stroke-dasharray="9.4636,3.1545,0.7886,3.1545,0.7886,3.1545" stroke-width="1.577" d="M.89 328.27L613 263.953"/>
            <path stroke="#FE3B1F" stroke-dasharray="9.142300000000001,3.0474,0.7619,3.0474,0.7619,3.0474" stroke-width="1.524" d="M19.914 306.126l574.062-20.03"/>
            <path stroke="#FE3B1F" stroke-dasharray="8.1957,2.7319,0.6830000000000001,2.7319,0.6830000000000001,2.7319" stroke-width="1.366" d="M77.432 271.964l459.026 48.295M87.444 367.44l439.002-142.658"/>
            <path stroke="#2D3E95" stroke-dasharray="8.8523,2.9508,0.7377,2.9508,0.7377,2.9508" stroke-width="1.475" d="M37.826 286.764l538.238 18.806M45.613 361.32l522.552-130.306"/>
            <path stroke="#FE3B1F" stroke-dasharray="9.142300000000001,3.0474,0.7619,3.0474,0.7619,3.0474" stroke-width="1.524" d="M154.752 539.7L459.138 52.522"/>
            <path stroke="#2D3E95" stroke-dasharray="9.142300000000001,3.0474,0.7619,3.0474,0.7619,3.0474" stroke-width="1.524" d="M172.107 549.714L441.783 42.508"/>
            <path stroke="#2D3E95" stroke-dasharray="8.5303,2.8434,0.7109,2.8434,0.7109,2.8434" stroke-width="1.422" d="M159.98 498.415L453.91 93.808"/>
            <path stroke="#FE3B1F" stroke-dasharray="9.142300000000001,3.0474,0.7619,3.0474,0.7619,3.0474" stroke-width="1.524" d="M93.563 488.289l426.764-384.355"/>
            <path stroke="#2D3E95" stroke-dasharray="9.4636,3.1545,0.7886,3.1545,0.7886,3.1545" stroke-width="1.577" d="M64.415 485.618l485.06-379.013"/>
            <path stroke="#FE3B1F" stroke-dasharray="9.142300000000001,3.0474,0.7619,3.0474,0.7619,3.0474" stroke-width="1.524" d="M68.865 456.797l476.16-321.26"/>
            <path stroke="#FE3B1F" stroke-dasharray="8.1957,2.7319,0.6830000000000001,2.7319,0.6830000000000001,2.7319" stroke-width="1.366" d="M158.534 472.932l296.71-353.642"/>
            <path stroke="#2D3E95" stroke-dasharray="8.8523,2.9508,0.7377,2.9508,0.7377,2.9508" stroke-width="1.475" d="M73.76 430.758l466.37-269.293M119.93 489.847l374.03-387.471"/>
            <path stroke="#FE3B1F" stroke-dasharray="9.142300000000001,3.0474,0.7619,3.0474,0.7619,3.0474" stroke-width="1.524" d="M306.945 583.432V8.902"/>
            <path stroke="#2D3E95" stroke-dasharray="8.5303,2.8434,0.7109,2.8434,0.7109,2.8434" stroke-width="1.422" d="M289.478 545.597l34.934-498.971"/>
            <path stroke="#FE3B1F" stroke-dasharray="9.142300000000001,3.0474,0.7619,3.0474,0.7619,3.0474" stroke-width="1.524" d="M227.733 572.304L386.045 20.03"/>
            <path stroke="#2D3E95" stroke-dasharray="9.4636,3.1545,0.7886,3.1545,0.7886,3.1545" stroke-width="1.577" d="M201.7 585.323L412.19 6.9"/>
            <path stroke="#FE3B1F" stroke-dasharray="9.142300000000001,3.0474,0.7619,3.0474,0.7619,3.0474" stroke-width="1.524" d="M190.13 558.505L423.76 33.717"/>
            <path stroke="#FE3B1F" stroke-dasharray="8.1957,2.7319,0.6830000000000001,2.7319,0.6830000000000001,2.7319" stroke-width="1.366" d="M274.793 524.677l64.304-457.131"/>
            <path stroke="#2D3E95" stroke-dasharray="8.8523,2.9508,0.7377,2.9508,0.7377,2.9508" stroke-width="1.475" d="M250.985 559.618l111.92-526.902"/>
        </g>
        <circle cx="308" cy="297" r="26" fill="#FFF" fill-rule="nonzero"/>
    </g>
</svg>
