<svg xmlns="http://www.w3.org/2000/svg" width="146" height="146" viewBox="0 0 146 146">
    <g fill="none" fill-rule="evenodd">
        <g transform="translate(1 1)">
            <circle cx="71.72" cy="71.72" r="71.72" fill="#FFF" stroke="#FF7C10" stroke-width="1.76"/>
            <path stroke="#FF7300" stroke-dasharray="10.78402538299561,3.594667959213257,0.8986780047416688,3.594667959213257,0.8986780047416688,3.594667959213257" stroke-linecap="round" stroke-width="3.094" d="M67.423 12.43L75.4 131.538M42.3 28.908l58.224 86.152M51.622 11.154l39.602 121.66M61.671 16.874l19.482 110.22M46.84 21.692l49.144 100.584M31.413 27.632l80.02 88.704M21.385 57.662L121.46 86.306M17.088 38.082l108.67 67.804M28.482 36.014l85.882 71.94M20.195 49.214l102.433 45.54M12.195 63.668L130.628 80.3M23.854 93.126l95.116-42.284M7.964 80.894l126.896-17.82M15.347 71.984h112.13M17.529 87.406l107.766-30.844M45.209 125.642L97.637 18.326M42.3 115.06l58.224-86.152M22.333 113.102l98.158-82.236M23.876 101.64l95.072-59.312M33.903 113.564l75.018-83.16M69.605 123.926L73.24 20.042M51.622 132.814l39.602-121.66M61.671 127.094l19.482-110.22"/>
            <ellipse cx="71.302" cy="72.05" fill="#FFF" fill-rule="nonzero" rx="33.762" ry="33.704"/>
        </g>
        <text fill="#FF7C10" font-family="GTPressura-Light, GT Pressura" font-size="66" font-weight="300" transform="translate(1 1)">
            <tspan x="53.68" y="88.04">+</tspan>
        </text>
    </g>
</svg>
