<?xml version="1.0" encoding="utf-8"?>
<!-- Generator: Adobe Illustrator 22.1.0, SVG Export Plug-In . SVG Version: 6.00 Build 0)  -->
<svg version="1.1" id="Layer_1" xmlns="http://www.w3.org/2000/svg" xmlns:xlink="http://www.w3.org/1999/xlink" x="0px" y="0px"
	 viewBox="0 0 100 100" style="enable-background:new 0 0 100 100;" xml:space="preserve">
<path d="M96.2,17.3c0-5.4-4.4-9.9-9.9-9.9c-4.9,0-8.8,3.5-9.7,8l-0.2,0.1C65,23.1,51.8,27.1,38.1,27.1l-24.1,0
	c-5.4,0-9.9,4.4-9.9,9.9l0,13.1c0,5.4,4.4,9.9,9.9,9.9l3.3,0l0,23c0,5.4,4.4,9.9,9.9,9.9c5.4,0,9.9-4.4,9.9-9.9l0-9.9l3.3,0
	c5.4,0,9.9-4.4,9.9-9.9l0-2.2c9.3,1.7,18.2,5.2,26.2,10.5l0.2,0.1c0.9,4.6,4.9,8,9.7,8l0,0c5.4,0,9.9-4.4,9.9-9.9L96.2,17.3z
	 M10.7,50.1l0-13.1c0-1.8,1.5-3.3,3.3-3.3l23,0l0,19.7c-2.2,0-20.7,0-23,0C12.2,53.4,10.7,51.9,10.7,50.1z M27.2,86.2
	c-1.8,0-3.3-1.5-3.3-3.3l0-23l6.6,0l0,23C30.4,84.7,29,86.2,27.2,86.2z M43.6,63.2c0,1.8-1.5,3.3-3.3,3.3l-3.3,0l0-6.6
	c1.4,0,3.5,0,6.6,0.2L43.6,63.2z M43.6,53.6l0-20.1c11.6-0.8,22.8-4.3,32.9-10.2l0,40.6C66.4,57.9,55.2,54.4,43.6,53.6z M86.3,73.1
	c-1.8,0-3.3-1.5-3.3-3.3l0-52.6c0-1.8,1.5-3.3,3.3-3.3c1.8,0,3.3,1.5,3.3,3.3l0,52.6C89.6,71.6,88.1,73.1,86.3,73.1z"/>
</svg>
